<?xml version="1.0" encoding="iso-8859-1"?>
<!-- Uploaded to: SVG Repo, www.svgrepo.com, Generator: SVG Repo Mixer Tools -->
<svg height="800px" width="800px" version="1.1" id="Layer_1" xmlns="http://www.w3.org/2000/svg" xmlns:xlink="http://www.w3.org/1999/xlink" 
	 viewBox="0 0 512 512" xml:space="preserve">
<path style="fill:#DDC98B;" d="M154.642,54.793h240.845v401.969H154.642V54.793L154.642,54.793z"/>
<path style="fill:#825934;" d="M395.487,344.184v112.579H154.642V344.184H395.487z"/>
<path style="fill:#391B10;" d="M395.487,420.73v77.913H154.642V420.73H395.487z"/>
<path d="M425.21,494.191h-20.819V61.886h20.819c4.903,0,8.877-3.987,8.877-8.904s-3.974-8.904-8.877-8.904H283.944V8.904
	c0-4.917-3.974-8.904-8.877-8.904s-8.877,3.987-8.877,8.904v35.173H124.918c-4.903,0-8.877,3.987-8.877,8.904
	s3.974,8.904,8.877,8.904h20.819v83.054c-37.881,2.958-67.824,35.302-67.824,74.662v198.51c0,4.917,3.974,8.904,8.877,8.904
	s8.877-3.987,8.877-8.904v-198.51c0-29.526,21.989-53.889,50.071-56.805v331.394h-20.819c-4.903,0-8.877,3.987-8.877,8.904
	c0,4.917,3.974,8.904,8.877,8.904H425.21c4.903,0,8.877-3.987,8.877-8.904C434.087,498.178,430.113,494.191,425.21,494.191z
	 M163.546,162.504h12.009c4.903,0,8.877-3.987,8.877-8.904c0-4.917-3.974-8.904-8.877-8.904h-12.009V63.698H266.19v265.012h-71.466
	c-4.903,0-8.877,3.986-8.877,8.904c0,4.917,3.974,8.904,8.877,8.904h80.284c0.02,0,0.039,0.002,0.059,0.002
	c0.02,0,0.039-0.002,0.059-0.002h80.276c4.903,0,8.877-3.987,8.877-8.904c0-4.919-3.975-8.904-8.877-8.904h-71.458V63.698h102.639
	v426.041H163.546V162.504z"/>
</svg>